<svg width="24" height="24" viewBox="0 0 24 24" fill="none" xmlns="http://www.w3.org/2000/svg">
<path d="M15.5 19.7942C14.1318 20.5841 12.5798 21 11 21C9.42017 21 7.86817 20.5841 6.5 19.7942C5.13183 19.0043 3.99569 17.8682 3.20577 16.5C2.41586 15.1318 2 13.5798 2 12C2 10.4202 2.41586 8.86817 3.20577 7.5C3.99569 6.13183 5.13183 4.99569 6.5 4.20577C7.86817 3.41586 9.42017 3 11 3C12.5798 3 14.1318 3.41586 15.5 4.20577" stroke="#11A97D" stroke-width="1.5" stroke-linecap="round"/>
<path d="M19 8L22 12M22 12L19 16M22 12H13" stroke="#11A97D" stroke-width="1.5" stroke-linecap="round" stroke-linejoin="round"/>
</svg>
