<svg width="19" height="16" viewBox="0 0 19 16" fill="none" xmlns="http://www.w3.org/2000/svg">
<path d="M15.2499 6C15.2499 6.41421 15.5857 6.75 15.9999 6.75C16.4141 6.75 16.7499 6.41421 16.7499 6H15.2499ZM16.7499 10C16.7499 9.58579 16.4141 9.25 15.9999 9.25C15.5857 9.25 15.2499 9.58579 15.2499 10H16.7499ZM4.99991 1.75H11.9999V0.25H4.99991V1.75ZM11.9999 14.25H4.99991V15.75H11.9999V14.25ZM15.2499 5V6H16.7499V5H15.2499ZM15.2499 10V11H16.7499V10H15.2499ZM0.249908 5V11H1.74991V5H0.249908ZM4.99991 14.25C3.20498 14.25 1.74991 12.7949 1.74991 11H0.249908C0.249908 13.6234 2.37656 15.75 4.99991 15.75V14.25ZM11.9999 15.75C14.6233 15.75 16.7499 13.6234 16.7499 11H15.2499C15.2499 12.7949 13.7948 14.25 11.9999 14.25V15.75ZM11.9999 1.75C13.7948 1.75 15.2499 3.20507 15.2499 5H16.7499C16.7499 2.37665 14.6233 0.25 11.9999 0.25V1.75ZM4.99991 0.25C2.37656 0.25 0.249908 2.37665 0.249908 5H1.74991C1.74991 3.20507 3.20498 1.75 4.99991 1.75V0.25Z" fill="white"/>
<path d="M16.9999 6H13.9999C13.4476 6 12.9999 6.44772 12.9999 7V9C12.9999 9.55228 13.4476 10 13.9999 10H16.9999C17.5522 10 17.9999 9.55228 17.9999 9V7C17.9999 6.44772 17.5522 6 16.9999 6Z" stroke="white" stroke-width="1.5" stroke-linecap="round"/>
</svg>
