<svg width="332" height="332" viewBox="0 0 332 332" fill="none" xmlns="http://www.w3.org/2000/svg">
<rect width="332" height="332" fill="white" fill-opacity="0.08"/>
<path d="M155.352 161.242V171H154.078V161.242H155.352ZM167.421 161.312V171H166.147V163.776L162.927 171H162.031L158.797 163.762V171H157.523V161.312H158.895L162.479 169.32L166.063 161.312H167.421ZM176.974 164.07C176.703 163.501 176.311 163.062 175.798 162.754C175.285 162.437 174.687 162.278 174.006 162.278C173.325 162.278 172.709 162.437 172.158 162.754C171.617 163.062 171.187 163.51 170.87 164.098C170.562 164.677 170.408 165.349 170.408 166.114C170.408 166.879 170.562 167.551 170.87 168.13C171.187 168.709 171.617 169.157 172.158 169.474C172.709 169.782 173.325 169.936 174.006 169.936C174.958 169.936 175.742 169.651 176.358 169.082C176.974 168.513 177.333 167.743 177.436 166.772H173.544V165.736H178.794V166.716C178.719 167.519 178.467 168.256 178.038 168.928C177.609 169.591 177.044 170.118 176.344 170.51C175.644 170.893 174.865 171.084 174.006 171.084C173.101 171.084 172.275 170.874 171.528 170.454C170.781 170.025 170.189 169.432 169.75 168.676C169.321 167.92 169.106 167.066 169.106 166.114C169.106 165.162 169.321 164.308 169.75 163.552C170.189 162.787 170.781 162.194 171.528 161.774C172.275 161.345 173.101 161.13 174.006 161.13C175.042 161.13 175.957 161.387 176.75 161.9C177.553 162.413 178.136 163.137 178.5 164.07H176.974Z" fill="#D8D8DE"/>
<rect x="0.5" y="0.5" width="331" height="331" stroke="white" stroke-opacity="0.5" stroke-dasharray="4 4"/>
</svg>
